<svg width="35" height="35" viewBox="0 0 35 35" fill="none" xmlns="http://www.w3.org/2000/svg">
<path fill-rule="evenodd" clip-rule="evenodd" d="M23.9325 4.0374L23.934 5.13061C27.9512 5.44545 30.6048 8.18283 30.6091 12.3807L30.625 24.6683C30.6307 29.2452 27.7553 32.0613 23.1464 32.0686L11.8882 32.0831C7.30799 32.089 4.39661 29.2058 4.39085 24.6158L4.37501 12.4726C4.36925 8.24696 6.92931 5.51687 10.9465 5.1481L10.9451 4.0549C10.9436 3.41355 11.4188 2.93108 12.0523 2.93108C12.6858 2.92963 13.161 3.41063 13.1624 4.05198L13.1639 5.0723L21.7166 5.06064L21.7152 4.04032C21.7137 3.39897 22.1889 2.91796 22.8224 2.91651C23.4415 2.91505 23.9311 3.39606 23.9325 4.0374ZM6.59383 12.923L28.3932 12.8938V12.3836C28.3313 9.24979 26.759 7.60562 23.9369 7.36074L23.9383 8.4831C23.9383 9.10986 23.4502 9.60691 22.831 9.60691C22.1975 9.60837 21.7209 9.11278 21.7209 8.48601L21.7195 7.30535L13.1668 7.31701L13.1682 8.49621C13.1682 9.12444 12.6945 9.62003 12.0609 9.62003C11.4274 9.62148 10.9508 9.12736 10.9508 8.49913L10.9494 7.37677C8.14167 7.65809 6.58807 9.3081 6.59239 12.4696L6.59383 12.923ZM22.2249 19.5478V19.5638C22.2393 20.2343 22.7864 20.743 23.4502 20.7284C24.0981 20.7124 24.615 20.157 24.6006 19.4865C24.5704 18.8452 24.0506 18.3219 23.4041 18.3234C22.7418 18.338 22.2234 18.8773 22.2249 19.5478ZM23.4142 26.0924C22.7519 26.0778 22.2177 25.5254 22.2162 24.8549C22.2018 24.1844 22.7331 23.6291 23.3955 23.613H23.4099C24.0866 23.613 24.6352 24.1654 24.6352 24.8505C24.6366 25.5356 24.0895 26.0909 23.4142 26.0924ZM16.2927 19.5711C16.3215 20.2416 16.8701 20.7649 17.5324 20.7357C18.1803 20.7051 18.6972 20.1512 18.6684 19.4807C18.6526 18.8248 18.1198 18.3146 17.4719 18.3161C16.8096 18.3452 16.2912 18.9006 16.2927 19.5711ZM17.5382 26.0268C16.8758 26.056 16.3287 25.5327 16.2984 24.8622C16.2984 24.1917 16.8153 23.6378 17.4777 23.6072C18.1256 23.6057 18.6598 24.1159 18.6742 24.7704C18.7044 25.4423 18.1861 25.9962 17.5382 26.0268ZM10.3605 19.6221C10.3893 20.2926 10.9379 20.8173 11.6002 20.7867C12.2481 20.7576 12.765 20.2022 12.7348 19.5317C12.7204 18.8758 12.1877 18.3656 11.5383 18.3671C10.8759 18.3963 10.359 18.9516 10.3605 19.6221ZM11.606 26.0341C10.9436 26.0647 10.3965 25.54 10.3662 24.8695C10.3648 24.199 10.8831 23.6436 11.5455 23.6145C12.1934 23.613 12.7276 24.1232 12.742 24.7791C12.7722 25.4496 12.2553 26.0049 11.606 26.0341Z" fill="#CE5A67"/>
</svg>
