<svg width="1246" height="349" viewBox="0 0 1246 349" fill="none" xmlns="http://www.w3.org/2000/svg">
<rect width="1246" height="349" fill="#F4BF96"/>
<path d="M459.437 190.9V199.08C459.437 199.84 459.61 200.427 459.957 200.84C460.317 201.253 460.857 201.46 461.577 201.46C462.297 201.46 462.837 201.253 463.197 200.84C463.57 200.413 463.757 199.827 463.757 199.08V190.9H467.677V199.08C467.677 200.373 467.404 201.48 466.857 202.4C466.31 203.307 465.564 203.993 464.617 204.46C463.684 204.913 462.644 205.14 461.497 205.14C460.35 205.14 459.324 204.913 458.417 204.46C457.524 203.993 456.817 203.307 456.297 202.4C455.79 201.493 455.537 200.387 455.537 199.08V190.9H459.437ZM477.175 193.68C478.469 193.68 479.495 194.113 480.255 194.98C481.015 195.833 481.395 196.993 481.395 198.46V205H477.475V198.98C477.475 198.34 477.309 197.84 476.975 197.48C476.642 197.107 476.195 196.92 475.635 196.92C475.049 196.92 474.589 197.107 474.255 197.48C473.922 197.84 473.755 198.34 473.755 198.98V205H469.835V193.78H473.755V195.38C474.102 194.873 474.569 194.467 475.155 194.16C475.742 193.84 476.415 193.68 477.175 193.68ZM487.686 193.64C488.446 193.64 489.106 193.793 489.666 194.1C490.24 194.407 490.68 194.82 490.986 195.34V193.78H494.906V204.88C494.906 205.933 494.706 206.88 494.306 207.72C493.906 208.573 493.28 209.253 492.426 209.76C491.586 210.267 490.52 210.52 489.226 210.52C487.493 210.52 486.106 210.113 485.066 209.3C484.026 208.487 483.433 207.38 483.286 205.98H487.146C487.226 206.34 487.426 206.62 487.746 206.82C488.066 207.02 488.48 207.12 488.986 207.12C490.32 207.12 490.986 206.373 490.986 204.88V203.44C490.68 203.96 490.24 204.373 489.666 204.68C489.106 204.987 488.446 205.14 487.686 205.14C486.793 205.14 485.98 204.907 485.246 204.44C484.526 203.973 483.953 203.307 483.526 202.44C483.113 201.56 482.906 200.54 482.906 199.38C482.906 198.22 483.113 197.207 483.526 196.34C483.953 195.473 484.526 194.807 485.246 194.34C485.98 193.873 486.793 193.64 487.686 193.64ZM490.986 199.38C490.986 198.66 490.786 198.093 490.386 197.68C490 197.267 489.52 197.06 488.946 197.06C488.36 197.06 487.873 197.267 487.486 197.68C487.1 198.08 486.906 198.647 486.906 199.38C486.906 200.1 487.1 200.673 487.486 201.1C487.873 201.513 488.36 201.72 488.946 201.72C489.52 201.72 490 201.513 490.386 201.1C490.786 200.687 490.986 200.113 490.986 199.38ZM501.28 193.64C502.04 193.64 502.7 193.793 503.26 194.1C503.833 194.407 504.273 194.82 504.58 195.34V193.78H508.5V204.88C508.5 205.933 508.3 206.88 507.9 207.72C507.5 208.573 506.873 209.253 506.02 209.76C505.18 210.267 504.113 210.52 502.82 210.52C501.087 210.52 499.7 210.113 498.66 209.3C497.62 208.487 497.027 207.38 496.88 205.98H500.74C500.82 206.34 501.02 206.62 501.34 206.82C501.66 207.02 502.073 207.12 502.58 207.12C503.913 207.12 504.58 206.373 504.58 204.88V203.44C504.273 203.96 503.833 204.373 503.26 204.68C502.7 204.987 502.04 205.14 501.28 205.14C500.387 205.14 499.573 204.907 498.84 204.44C498.12 203.973 497.547 203.307 497.12 202.44C496.707 201.56 496.5 200.54 496.5 199.38C496.5 198.22 496.707 197.207 497.12 196.34C497.547 195.473 498.12 194.807 498.84 194.34C499.573 193.873 500.387 193.64 501.28 193.64ZM504.58 199.38C504.58 198.66 504.38 198.093 503.98 197.68C503.593 197.267 503.113 197.06 502.54 197.06C501.953 197.06 501.467 197.267 501.08 197.68C500.693 198.08 500.5 198.647 500.5 199.38C500.5 200.1 500.693 200.673 501.08 201.1C501.467 201.513 501.953 201.72 502.54 201.72C503.113 201.72 503.593 201.513 503.98 201.1C504.38 200.687 504.58 200.113 504.58 199.38ZM510.094 199.38C510.094 198.22 510.3 197.207 510.714 196.34C511.14 195.473 511.714 194.807 512.434 194.34C513.167 193.873 513.98 193.64 514.874 193.64C515.647 193.64 516.314 193.793 516.874 194.1C517.434 194.407 517.867 194.82 518.174 195.34V193.78H522.094V205H518.174V203.44C517.867 203.96 517.427 204.373 516.854 204.68C516.294 204.987 515.634 205.14 514.874 205.14C513.98 205.14 513.167 204.907 512.434 204.44C511.714 203.973 511.14 203.307 510.714 202.44C510.3 201.56 510.094 200.54 510.094 199.38ZM518.174 199.38C518.174 198.66 517.974 198.093 517.574 197.68C517.187 197.267 516.707 197.06 516.134 197.06C515.547 197.06 515.06 197.267 514.674 197.68C514.287 198.08 514.094 198.647 514.094 199.38C514.094 200.1 514.287 200.673 514.674 201.1C515.06 201.513 515.547 201.72 516.134 201.72C516.707 201.72 517.187 201.513 517.574 201.1C517.974 200.687 518.174 200.113 518.174 199.38ZM531.708 193.68C532.988 193.68 534.001 194.113 534.748 194.98C535.508 195.833 535.888 196.993 535.888 198.46V205H531.968V198.98C531.968 198.34 531.801 197.84 531.468 197.48C531.134 197.107 530.688 196.92 530.128 196.92C529.541 196.92 529.081 197.107 528.748 197.48C528.414 197.84 528.248 198.34 528.248 198.98V205H524.328V190.2H528.248V195.38C528.594 194.873 529.061 194.467 529.648 194.16C530.248 193.84 530.934 193.68 531.708 193.68ZM546.007 193.64C546.767 193.64 547.427 193.793 547.987 194.1C548.56 194.407 549 194.82 549.307 195.34V193.78H553.227V204.88C553.227 205.933 553.027 206.88 552.627 207.72C552.227 208.573 551.6 209.253 550.747 209.76C549.907 210.267 548.84 210.52 547.547 210.52C545.813 210.52 544.427 210.113 543.387 209.3C542.347 208.487 541.753 207.38 541.607 205.98H545.467C545.547 206.34 545.747 206.62 546.067 206.82C546.387 207.02 546.8 207.12 547.307 207.12C548.64 207.12 549.307 206.373 549.307 204.88V203.44C549 203.96 548.56 204.373 547.987 204.68C547.427 204.987 546.767 205.14 546.007 205.14C545.113 205.14 544.3 204.907 543.567 204.44C542.847 203.973 542.273 203.307 541.847 202.44C541.433 201.56 541.227 200.54 541.227 199.38C541.227 198.22 541.433 197.207 541.847 196.34C542.273 195.473 542.847 194.807 543.567 194.34C544.3 193.873 545.113 193.64 546.007 193.64ZM549.307 199.38C549.307 198.66 549.107 198.093 548.707 197.68C548.32 197.267 547.84 197.06 547.267 197.06C546.68 197.06 546.193 197.267 545.807 197.68C545.42 198.08 545.227 198.647 545.227 199.38C545.227 200.1 545.42 200.673 545.807 201.1C546.193 201.513 546.68 201.72 547.267 201.72C547.84 201.72 548.32 201.513 548.707 201.1C549.107 200.687 549.307 200.113 549.307 199.38ZM554.82 199.38C554.82 198.22 555.027 197.207 555.44 196.34C555.867 195.473 556.44 194.807 557.16 194.34C557.894 193.873 558.707 193.64 559.6 193.64C560.374 193.64 561.04 193.793 561.6 194.1C562.16 194.407 562.594 194.82 562.9 195.34V193.78H566.82V205H562.9V203.44C562.594 203.96 562.154 204.373 561.58 204.68C561.02 204.987 560.36 205.14 559.6 205.14C558.707 205.14 557.894 204.907 557.16 204.44C556.44 203.973 555.867 203.307 555.44 202.44C555.027 201.56 554.82 200.54 554.82 199.38ZM562.9 199.38C562.9 198.66 562.7 198.093 562.3 197.68C561.914 197.267 561.434 197.06 560.86 197.06C560.274 197.06 559.787 197.267 559.4 197.68C559.014 198.08 558.82 198.647 558.82 199.38C558.82 200.1 559.014 200.673 559.4 201.1C559.787 201.513 560.274 201.72 560.86 201.72C561.434 201.72 561.914 201.513 562.3 201.1C562.7 200.687 562.9 200.113 562.9 199.38ZM583.714 193.68C585.127 193.68 586.234 194.107 587.034 194.96C587.847 195.813 588.254 196.98 588.254 198.46V205H584.334V198.98C584.334 198.38 584.167 197.913 583.834 197.58C583.501 197.247 583.047 197.08 582.474 197.08C581.901 197.08 581.447 197.247 581.114 197.58C580.781 197.913 580.614 198.38 580.614 198.98V205H576.694V198.98C576.694 198.38 576.527 197.913 576.194 197.58C575.874 197.247 575.427 197.08 574.854 197.08C574.267 197.08 573.807 197.247 573.474 197.58C573.141 197.913 572.974 198.38 572.974 198.98V205H569.054V193.78H572.974V195.26C573.321 194.78 573.767 194.4 574.314 194.12C574.874 193.827 575.514 193.68 576.234 193.68C577.061 193.68 577.794 193.86 578.434 194.22C579.087 194.58 579.601 195.087 579.974 195.74C580.374 195.127 580.901 194.633 581.554 194.26C582.207 193.873 582.927 193.68 583.714 193.68ZM594.322 195.34C594.628 194.807 595.062 194.393 595.622 194.1C596.182 193.793 596.842 193.64 597.602 193.64C598.495 193.64 599.302 193.873 600.022 194.34C600.755 194.807 601.328 195.473 601.742 196.34C602.168 197.207 602.382 198.22 602.382 199.38C602.382 200.54 602.168 201.56 601.742 202.44C601.328 203.307 600.755 203.973 600.022 204.44C599.302 204.907 598.495 205.14 597.602 205.14C596.842 205.14 596.182 204.993 595.622 204.7C595.062 204.393 594.628 203.973 594.322 203.44V205H590.402V190.2H594.322V195.34ZM598.402 199.38C598.402 198.647 598.202 198.08 597.802 197.68C597.415 197.267 596.935 197.06 596.362 197.06C595.788 197.06 595.302 197.267 594.902 197.68C594.515 198.093 594.322 198.66 594.322 199.38C594.322 200.113 594.515 200.687 594.902 201.1C595.302 201.513 595.788 201.72 596.362 201.72C596.935 201.72 597.415 201.513 597.802 201.1C598.202 200.673 598.402 200.1 598.402 199.38ZM603.356 199.38C603.356 198.22 603.562 197.207 603.976 196.34C604.402 195.473 604.976 194.807 605.696 194.34C606.429 193.873 607.242 193.64 608.136 193.64C608.909 193.64 609.576 193.793 610.136 194.1C610.696 194.407 611.129 194.82 611.436 195.34V193.78H615.356V205H611.436V203.44C611.129 203.96 610.689 204.373 610.116 204.68C609.556 204.987 608.896 205.14 608.136 205.14C607.242 205.14 606.429 204.907 605.696 204.44C604.976 203.973 604.402 203.307 603.976 202.44C603.562 201.56 603.356 200.54 603.356 199.38ZM611.436 199.38C611.436 198.66 611.236 198.093 610.836 197.68C610.449 197.267 609.969 197.06 609.396 197.06C608.809 197.06 608.322 197.267 607.936 197.68C607.549 198.08 607.356 198.647 607.356 199.38C607.356 200.1 607.549 200.673 607.936 201.1C608.322 201.513 608.809 201.72 609.396 201.72C609.969 201.72 610.449 201.513 610.836 201.1C611.236 200.687 611.436 200.113 611.436 199.38ZM621.509 195.76C621.949 195.12 622.483 194.613 623.109 194.24C623.736 193.867 624.409 193.68 625.129 193.68V197.86H624.029C623.176 197.86 622.543 198.027 622.129 198.36C621.716 198.693 621.509 199.273 621.509 200.1V205H617.589V193.78H621.509V195.76ZM634.275 185.96L628.935 208.86H625.155L630.495 185.96H634.275ZM642.798 195.34C643.105 194.82 643.538 194.407 644.098 194.1C644.658 193.793 645.318 193.64 646.078 193.64C646.972 193.64 647.778 193.873 648.498 194.34C649.232 194.807 649.805 195.473 650.218 196.34C650.645 197.207 650.858 198.22 650.858 199.38C650.858 200.54 650.645 201.56 650.218 202.44C649.805 203.307 649.232 203.973 648.498 204.44C647.778 204.907 646.972 205.14 646.078 205.14C645.318 205.14 644.658 204.987 644.098 204.68C643.552 204.373 643.118 203.96 642.798 203.44V210.36H638.878V193.78H642.798V195.34ZM646.878 199.38C646.878 198.647 646.678 198.08 646.278 197.68C645.892 197.267 645.412 197.06 644.838 197.06C644.265 197.06 643.778 197.267 643.378 197.68C642.992 198.093 642.798 198.66 642.798 199.38C642.798 200.113 642.992 200.687 643.378 201.1C643.778 201.513 644.265 201.72 644.838 201.72C645.412 201.72 645.892 201.513 646.278 201.1C646.678 200.673 646.878 200.1 646.878 199.38ZM657.692 205.14C656.572 205.14 655.565 204.907 654.672 204.44C653.792 203.973 653.099 203.307 652.592 202.44C652.085 201.573 651.832 200.553 651.832 199.38C651.832 198.22 652.085 197.207 652.592 196.34C653.112 195.473 653.812 194.807 654.692 194.34C655.585 193.873 656.592 193.64 657.712 193.64C658.832 193.64 659.832 193.873 660.712 194.34C661.605 194.807 662.305 195.473 662.812 196.34C663.332 197.207 663.592 198.22 663.592 199.38C663.592 200.54 663.332 201.56 662.812 202.44C662.305 203.307 661.605 203.973 660.712 204.44C659.819 204.907 658.812 205.14 657.692 205.14ZM657.692 201.74C658.239 201.74 658.692 201.54 659.052 201.14C659.425 200.727 659.612 200.14 659.612 199.38C659.612 198.62 659.425 198.04 659.052 197.64C658.692 197.24 658.245 197.04 657.712 197.04C657.179 197.04 656.732 197.24 656.372 197.64C656.012 198.04 655.832 198.62 655.832 199.38C655.832 200.153 656.005 200.74 656.352 201.14C656.699 201.54 657.145 201.74 657.692 201.74ZM669.967 205.14C668.954 205.14 668.047 204.973 667.247 204.64C666.46 204.293 665.834 203.827 665.367 203.24C664.914 202.64 664.66 201.967 664.607 201.22H668.407C668.46 201.58 668.627 201.86 668.907 202.06C669.187 202.26 669.534 202.36 669.947 202.36C670.267 202.36 670.52 202.293 670.707 202.16C670.894 202.027 670.987 201.853 670.987 201.64C670.987 201.36 670.834 201.153 670.527 201.02C670.22 200.887 669.714 200.74 669.007 200.58C668.207 200.42 667.54 200.24 667.007 200.04C666.474 199.84 666.007 199.513 665.607 199.06C665.22 198.607 665.027 197.993 665.027 197.22C665.027 196.553 665.207 195.953 665.567 195.42C665.927 194.873 666.454 194.44 667.147 194.12C667.854 193.8 668.7 193.64 669.687 193.64C671.154 193.64 672.307 194 673.147 194.72C673.987 195.44 674.474 196.387 674.607 197.56H671.067C671 197.2 670.84 196.927 670.587 196.74C670.347 196.54 670.02 196.44 669.607 196.44C669.287 196.44 669.04 196.5 668.867 196.62C668.707 196.74 668.627 196.907 668.627 197.12C668.627 197.387 668.78 197.593 669.087 197.74C669.394 197.873 669.887 198.013 670.567 198.16C671.38 198.333 672.054 198.527 672.587 198.74C673.134 198.953 673.607 199.3 674.007 199.78C674.42 200.247 674.627 200.887 674.627 201.7C674.627 202.353 674.434 202.94 674.047 203.46C673.674 203.98 673.134 204.393 672.427 204.7C671.734 204.993 670.914 205.14 669.967 205.14ZM683.174 201.66V205H681.474C678.607 205 677.174 203.58 677.174 200.74V197.04H675.794V193.78H677.174V191.06H681.114V193.78H683.154V197.04H681.114V200.8C681.114 201.107 681.181 201.327 681.314 201.46C681.461 201.593 681.701 201.66 682.034 201.66H683.174ZM695.692 199.26C695.692 199.567 695.672 199.873 695.632 200.18H688.212C688.252 200.793 688.419 201.253 688.712 201.56C689.019 201.853 689.405 202 689.872 202C690.525 202 690.992 201.707 691.272 201.12H695.452C695.279 201.893 694.939 202.587 694.432 203.2C693.939 203.8 693.312 204.273 692.552 204.62C691.792 204.967 690.952 205.14 690.032 205.14C688.925 205.14 687.939 204.907 687.072 204.44C686.219 203.973 685.545 203.307 685.052 202.44C684.572 201.573 684.332 200.553 684.332 199.38C684.332 198.207 684.572 197.193 685.052 196.34C685.532 195.473 686.199 194.807 687.052 194.34C687.919 193.873 688.912 193.64 690.032 193.64C691.139 193.64 692.119 193.867 692.972 194.32C693.825 194.773 694.492 195.427 694.972 196.28C695.452 197.12 695.692 198.113 695.692 199.26ZM691.692 198.28C691.692 197.8 691.532 197.427 691.212 197.16C690.892 196.88 690.492 196.74 690.012 196.74C689.532 196.74 689.139 196.873 688.832 197.14C688.525 197.393 688.325 197.773 688.232 198.28H691.692ZM701.216 195.76C701.656 195.12 702.19 194.613 702.816 194.24C703.443 193.867 704.116 193.68 704.836 193.68V197.86H703.736C702.883 197.86 702.25 198.027 701.836 198.36C701.423 198.693 701.216 199.273 701.216 200.1V205H697.296V193.78H701.216V195.76ZM713.982 185.96L708.642 208.86H704.862L710.202 185.96H713.982ZM718.677 195.34C718.984 194.807 719.417 194.393 719.977 194.1C720.537 193.793 721.197 193.64 721.957 193.64C722.851 193.64 723.657 193.873 724.377 194.34C725.111 194.807 725.684 195.473 726.097 196.34C726.524 197.207 726.737 198.22 726.737 199.38C726.737 200.54 726.524 201.56 726.097 202.44C725.684 203.307 725.111 203.973 724.377 204.44C723.657 204.907 722.851 205.14 721.957 205.14C721.197 205.14 720.537 204.993 719.977 204.7C719.417 204.393 718.984 203.973 718.677 203.44V205H714.757V190.2H718.677V195.34ZM722.757 199.38C722.757 198.647 722.557 198.08 722.157 197.68C721.771 197.267 721.291 197.06 720.717 197.06C720.144 197.06 719.657 197.267 719.257 197.68C718.871 198.093 718.677 198.66 718.677 199.38C718.677 200.113 718.871 200.687 719.257 201.1C719.657 201.513 720.144 201.72 720.717 201.72C721.291 201.72 721.771 201.513 722.157 201.1C722.557 200.673 722.757 200.1 722.757 199.38ZM727.711 199.38C727.711 198.22 727.918 197.207 728.331 196.34C728.758 195.473 729.331 194.807 730.051 194.34C730.784 193.873 731.598 193.64 732.491 193.64C733.264 193.64 733.931 193.793 734.491 194.1C735.051 194.407 735.484 194.82 735.791 195.34V193.78H739.711V205H735.791V203.44C735.484 203.96 735.044 204.373 734.471 204.68C733.911 204.987 733.251 205.14 732.491 205.14C731.598 205.14 730.784 204.907 730.051 204.44C729.331 203.973 728.758 203.307 728.331 202.44C727.918 201.56 727.711 200.54 727.711 199.38ZM735.791 199.38C735.791 198.66 735.591 198.093 735.191 197.68C734.804 197.267 734.324 197.06 733.751 197.06C733.164 197.06 732.678 197.267 732.291 197.68C731.904 198.08 731.711 198.647 731.711 199.38C731.711 200.1 731.904 200.673 732.291 201.1C732.678 201.513 733.164 201.72 733.751 201.72C734.324 201.72 734.804 201.513 735.191 201.1C735.591 200.687 735.791 200.113 735.791 199.38ZM749.285 193.68C750.578 193.68 751.605 194.113 752.365 194.98C753.125 195.833 753.505 196.993 753.505 198.46V205H749.585V198.98C749.585 198.34 749.418 197.84 749.085 197.48C748.751 197.107 748.305 196.92 747.745 196.92C747.158 196.92 746.698 197.107 746.365 197.48C746.031 197.84 745.865 198.34 745.865 198.98V205H741.945V193.78H745.865V195.38C746.211 194.873 746.678 194.467 747.265 194.16C747.851 193.84 748.525 193.68 749.285 193.68ZM762.996 193.68C764.289 193.68 765.316 194.113 766.076 194.98C766.836 195.833 767.216 196.993 767.216 198.46V205H763.296V198.98C763.296 198.34 763.129 197.84 762.796 197.48C762.462 197.107 762.016 196.92 761.456 196.92C760.869 196.92 760.409 197.107 760.076 197.48C759.742 197.84 759.576 198.34 759.576 198.98V205H755.656V193.78H759.576V195.38C759.922 194.873 760.389 194.467 760.976 194.16C761.562 193.84 762.236 193.68 762.996 193.68ZM780.087 199.26C780.087 199.567 780.067 199.873 780.027 200.18H772.607C772.647 200.793 772.813 201.253 773.107 201.56C773.413 201.853 773.8 202 774.267 202C774.92 202 775.387 201.707 775.667 201.12H779.847C779.673 201.893 779.333 202.587 778.827 203.2C778.333 203.8 777.707 204.273 776.947 204.62C776.187 204.967 775.347 205.14 774.427 205.14C773.32 205.14 772.333 204.907 771.467 204.44C770.613 203.973 769.94 203.307 769.447 202.44C768.967 201.573 768.727 200.553 768.727 199.38C768.727 198.207 768.967 197.193 769.447 196.34C769.927 195.473 770.593 194.807 771.447 194.34C772.313 193.873 773.307 193.64 774.427 193.64C775.533 193.64 776.513 193.867 777.367 194.32C778.22 194.773 778.887 195.427 779.367 196.28C779.847 197.12 780.087 198.113 780.087 199.26ZM776.087 198.28C776.087 197.8 775.927 197.427 775.607 197.16C775.287 196.88 774.887 196.74 774.407 196.74C773.927 196.74 773.533 196.873 773.227 197.14C772.92 197.393 772.72 197.773 772.627 198.28H776.087ZM785.611 195.76C786.051 195.12 786.584 194.613 787.211 194.24C787.838 193.867 788.511 193.68 789.231 193.68V197.86H788.131C787.278 197.86 786.644 198.027 786.231 198.36C785.818 198.693 785.611 199.273 785.611 200.1V205H781.691V193.78H785.611V195.76Z" fill="#404040"/>
<path d="M345.1 232.06C346.62 232.06 347.933 232.347 349.04 232.92C350.16 233.48 351.013 234.287 351.6 235.34C352.2 236.393 352.5 237.633 352.5 239.06C352.5 240.487 352.2 241.727 351.6 242.78C351.013 243.82 350.16 244.62 349.04 245.18C347.933 245.727 346.62 246 345.1 246H340.76V232.06H345.1ZM345.1 244.5C346.9 244.5 348.273 244.027 349.22 243.08C350.166 242.12 350.64 240.78 350.64 239.06C350.64 237.327 350.16 235.973 349.2 235C348.253 234.027 346.886 233.54 345.1 233.54H342.58V244.5H345.1ZM355.84 233.26C355.494 233.26 355.2 233.14 354.96 232.9C354.72 232.66 354.6 232.367 354.6 232.02C354.6 231.673 354.72 231.38 354.96 231.14C355.2 230.9 355.494 230.78 355.84 230.78C356.174 230.78 356.454 230.9 356.68 231.14C356.92 231.38 357.04 231.673 357.04 232.02C357.04 232.367 356.92 232.66 356.68 232.9C356.454 233.14 356.174 233.26 355.84 233.26ZM356.72 235.04V246H354.9V235.04H356.72ZM361.642 236.82C361.962 236.193 362.415 235.707 363.002 235.36C363.602 235.013 364.329 234.84 365.182 234.84V236.72H364.702C362.662 236.72 361.642 237.827 361.642 240.04V246H359.822V235.04H361.642V236.82ZM377.283 240.1C377.283 240.447 377.263 240.813 377.223 241.2H368.463C368.53 242.28 368.896 243.127 369.563 243.74C370.243 244.34 371.063 244.64 372.023 244.64C372.81 244.64 373.463 244.46 373.983 244.1C374.516 243.727 374.89 243.233 375.103 242.62H377.063C376.77 243.673 376.183 244.533 375.303 245.2C374.423 245.853 373.33 246.18 372.023 246.18C370.983 246.18 370.05 245.947 369.223 245.48C368.41 245.013 367.77 244.353 367.303 243.5C366.836 242.633 366.603 241.633 366.603 240.5C366.603 239.367 366.83 238.373 367.283 237.52C367.736 236.667 368.37 236.013 369.183 235.56C370.01 235.093 370.956 234.86 372.023 234.86C373.063 234.86 373.983 235.087 374.783 235.54C375.583 235.993 376.196 236.62 376.623 237.42C377.063 238.207 377.283 239.1 377.283 240.1ZM375.403 239.72C375.403 239.027 375.25 238.433 374.943 237.94C374.636 237.433 374.216 237.053 373.683 236.8C373.163 236.533 372.583 236.4 371.943 236.4C371.023 236.4 370.236 236.693 369.583 237.28C368.943 237.867 368.576 238.68 368.483 239.72H375.403ZM385.805 246L381.505 241.16V246H379.685V231.2H381.505V239.9L385.725 235.04H388.265L383.105 240.5L388.285 246H385.805ZM394.758 246.18C393.732 246.18 392.798 245.947 391.958 245.48C391.132 245.013 390.478 244.353 389.998 243.5C389.532 242.633 389.298 241.633 389.298 240.5C389.298 239.38 389.538 238.393 390.018 237.54C390.512 236.673 391.178 236.013 392.018 235.56C392.858 235.093 393.798 234.86 394.838 234.86C395.878 234.86 396.818 235.093 397.658 235.56C398.498 236.013 399.158 236.667 399.638 237.52C400.132 238.373 400.378 239.367 400.378 240.5C400.378 241.633 400.125 242.633 399.618 243.5C399.125 244.353 398.452 245.013 397.598 245.48C396.745 245.947 395.798 246.18 394.758 246.18ZM394.758 244.58C395.412 244.58 396.025 244.427 396.598 244.12C397.172 243.813 397.632 243.353 397.978 242.74C398.338 242.127 398.518 241.38 398.518 240.5C398.518 239.62 398.345 238.873 397.998 238.26C397.652 237.647 397.198 237.193 396.638 236.9C396.078 236.593 395.472 236.44 394.818 236.44C394.152 236.44 393.538 236.593 392.978 236.9C392.432 237.193 391.992 237.647 391.658 238.26C391.325 238.873 391.158 239.62 391.158 240.5C391.158 241.393 391.318 242.147 391.638 242.76C391.972 243.373 392.412 243.833 392.958 244.14C393.505 244.433 394.105 244.58 394.758 244.58ZM415.951 234.84C416.805 234.84 417.565 235.02 418.231 235.38C418.898 235.727 419.425 236.253 419.811 236.96C420.198 237.667 420.391 238.527 420.391 239.54V246H418.591V239.8C418.591 238.707 418.318 237.873 417.771 237.3C417.238 236.713 416.511 236.42 415.591 236.42C414.645 236.42 413.891 236.727 413.331 237.34C412.771 237.94 412.491 238.813 412.491 239.96V246H410.691V239.8C410.691 238.707 410.418 237.873 409.871 237.3C409.338 236.713 408.611 236.42 407.691 236.42C406.745 236.42 405.991 236.727 405.431 237.34C404.871 237.94 404.591 238.813 404.591 239.96V246H402.771V235.04H404.591V236.62C404.951 236.047 405.431 235.607 406.031 235.3C406.645 234.993 407.318 234.84 408.051 234.84C408.971 234.84 409.785 235.047 410.491 235.46C411.198 235.873 411.725 236.48 412.071 237.28C412.378 236.507 412.885 235.907 413.591 235.48C414.298 235.053 415.085 234.84 415.951 234.84ZM433.377 240.1C433.377 240.447 433.357 240.813 433.317 241.2H424.557C424.623 242.28 424.99 243.127 425.657 243.74C426.337 244.34 427.157 244.64 428.117 244.64C428.903 244.64 429.557 244.46 430.077 244.1C430.61 243.727 430.983 243.233 431.197 242.62H433.157C432.863 243.673 432.277 244.533 431.397 245.2C430.517 245.853 429.423 246.18 428.117 246.18C427.077 246.18 426.143 245.947 425.317 245.48C424.503 245.013 423.863 244.353 423.397 243.5C422.93 242.633 422.697 241.633 422.697 240.5C422.697 239.367 422.923 238.373 423.377 237.52C423.83 236.667 424.463 236.013 425.277 235.56C426.103 235.093 427.05 234.86 428.117 234.86C429.157 234.86 430.077 235.087 430.877 235.54C431.677 235.993 432.29 236.62 432.717 237.42C433.157 238.207 433.377 239.1 433.377 240.1ZM431.497 239.72C431.497 239.027 431.343 238.433 431.037 237.94C430.73 237.433 430.31 237.053 429.777 236.8C429.257 236.533 428.677 236.4 428.037 236.4C427.117 236.4 426.33 236.693 425.677 237.28C425.037 237.867 424.67 238.68 424.577 239.72H431.497ZM441.119 234.84C442.452 234.84 443.532 235.247 444.359 236.06C445.186 236.86 445.599 238.02 445.599 239.54V246H443.799V239.8C443.799 238.707 443.526 237.873 442.979 237.3C442.432 236.713 441.686 236.42 440.739 236.42C439.779 236.42 439.012 236.72 438.439 237.32C437.879 237.92 437.599 238.793 437.599 239.94V246H435.779V235.04H437.599V236.6C437.959 236.04 438.446 235.607 439.059 235.3C439.686 234.993 440.372 234.84 441.119 234.84ZM447.892 240.48C447.892 239.36 448.119 238.38 448.572 237.54C449.025 236.687 449.645 236.027 450.432 235.56C451.232 235.093 452.125 234.86 453.112 234.86C453.965 234.86 454.759 235.06 455.492 235.46C456.225 235.847 456.785 236.36 457.172 237V231.2H459.012V246H457.172V243.94C456.812 244.593 456.279 245.133 455.572 245.56C454.865 245.973 454.039 246.18 453.092 246.18C452.119 246.18 451.232 245.94 450.432 245.46C449.645 244.98 449.025 244.307 448.572 243.44C448.119 242.573 447.892 241.587 447.892 240.48ZM457.172 240.5C457.172 239.673 457.005 238.953 456.672 238.34C456.339 237.727 455.885 237.26 455.312 236.94C454.752 236.607 454.132 236.44 453.452 236.44C452.772 236.44 452.152 236.6 451.592 236.92C451.032 237.24 450.585 237.707 450.252 238.32C449.919 238.933 449.752 239.653 449.752 240.48C449.752 241.32 449.919 242.053 450.252 242.68C450.585 243.293 451.032 243.767 451.592 244.1C452.152 244.42 452.772 244.58 453.452 244.58C454.132 244.58 454.752 244.42 455.312 244.1C455.885 243.767 456.339 243.293 456.672 242.68C457.005 242.053 457.172 241.327 457.172 240.5ZM461.408 240.48C461.408 239.36 461.634 238.38 462.088 237.54C462.541 236.687 463.161 236.027 463.948 235.56C464.748 235.093 465.634 234.86 466.608 234.86C467.568 234.86 468.401 235.067 469.108 235.48C469.814 235.893 470.341 236.413 470.688 237.04V235.04H472.528V246H470.688V243.96C470.328 244.6 469.788 245.133 469.068 245.56C468.361 245.973 467.534 246.18 466.588 246.18C465.614 246.18 464.734 245.94 463.948 245.46C463.161 244.98 462.541 244.307 462.088 243.44C461.634 242.573 461.408 241.587 461.408 240.48ZM470.688 240.5C470.688 239.673 470.521 238.953 470.188 238.34C469.854 237.727 469.401 237.26 468.828 236.94C468.268 236.607 467.648 236.44 466.968 236.44C466.288 236.44 465.668 236.6 465.108 236.92C464.548 237.24 464.101 237.707 463.768 238.32C463.434 238.933 463.268 239.653 463.268 240.48C463.268 241.32 463.434 242.053 463.768 242.68C464.101 243.293 464.548 243.767 465.108 244.1C465.668 244.42 466.288 244.58 466.968 244.58C467.648 244.58 468.268 244.42 468.828 244.1C469.401 243.767 469.854 243.293 470.188 242.68C470.521 242.053 470.688 241.327 470.688 240.5ZM479.483 246.18C478.643 246.18 477.89 246.04 477.223 245.76C476.557 245.467 476.03 245.067 475.643 244.56C475.257 244.04 475.043 243.447 475.003 242.78H476.883C476.937 243.327 477.19 243.773 477.643 244.12C478.11 244.467 478.717 244.64 479.463 244.64C480.157 244.64 480.703 244.487 481.103 244.18C481.503 243.873 481.703 243.487 481.703 243.02C481.703 242.54 481.49 242.187 481.063 241.96C480.637 241.72 479.977 241.487 479.083 241.26C478.27 241.047 477.603 240.833 477.083 240.62C476.577 240.393 476.137 240.067 475.763 239.64C475.403 239.2 475.223 238.627 475.223 237.92C475.223 237.36 475.39 236.847 475.723 236.38C476.057 235.913 476.53 235.547 477.143 235.28C477.757 235 478.457 234.86 479.243 234.86C480.457 234.86 481.437 235.167 482.183 235.78C482.93 236.393 483.33 237.233 483.383 238.3H481.563C481.523 237.727 481.29 237.267 480.863 236.92C480.45 236.573 479.89 236.4 479.183 236.4C478.53 236.4 478.01 236.54 477.623 236.82C477.237 237.1 477.043 237.467 477.043 237.92C477.043 238.28 477.157 238.58 477.383 238.82C477.623 239.047 477.917 239.233 478.263 239.38C478.623 239.513 479.117 239.667 479.743 239.84C480.53 240.053 481.17 240.267 481.663 240.48C482.157 240.68 482.577 240.987 482.923 241.4C483.283 241.813 483.47 242.353 483.483 243.02C483.483 243.62 483.317 244.16 482.983 244.64C482.65 245.12 482.177 245.5 481.563 245.78C480.963 246.047 480.27 246.18 479.483 246.18ZM486.993 233.26C486.646 233.26 486.353 233.14 486.113 232.9C485.873 232.66 485.753 232.367 485.753 232.02C485.753 231.673 485.873 231.38 486.113 231.14C486.353 230.9 486.646 230.78 486.993 230.78C487.326 230.78 487.606 230.9 487.833 231.14C488.073 231.38 488.193 231.673 488.193 232.02C488.193 232.367 488.073 232.66 487.833 232.9C487.606 233.14 487.326 233.26 486.993 233.26ZM487.873 235.04V246H486.053V235.04H487.873ZM497.094 246L492.794 241.16V246H490.974V231.2H492.794V239.9L497.014 235.04H499.554L494.394 240.5L499.574 246H497.094ZM500.587 240.48C500.587 239.36 500.814 238.38 501.267 237.54C501.721 236.687 502.341 236.027 503.127 235.56C503.927 235.093 504.814 234.86 505.787 234.86C506.747 234.86 507.581 235.067 508.287 235.48C508.994 235.893 509.521 236.413 509.867 237.04V235.04H511.707V246H509.867V243.96C509.507 244.6 508.967 245.133 508.247 245.56C507.541 245.973 506.714 246.18 505.767 246.18C504.794 246.18 503.914 245.94 503.127 245.46C502.341 244.98 501.721 244.307 501.267 243.44C500.814 242.573 500.587 241.587 500.587 240.48ZM509.867 240.5C509.867 239.673 509.701 238.953 509.367 238.34C509.034 237.727 508.581 237.26 508.007 236.94C507.447 236.607 506.827 236.44 506.147 236.44C505.467 236.44 504.847 236.6 504.287 236.92C503.727 237.24 503.281 237.707 502.947 238.32C502.614 238.933 502.447 239.653 502.447 240.48C502.447 241.32 502.614 242.053 502.947 242.68C503.281 243.293 503.727 243.767 504.287 244.1C504.847 244.42 505.467 244.58 506.147 244.58C506.827 244.58 507.447 244.42 508.007 244.1C508.581 243.767 509.034 243.293 509.367 242.68C509.701 242.053 509.867 241.327 509.867 240.5ZM520.123 234.84C521.456 234.84 522.536 235.247 523.363 236.06C524.19 236.86 524.603 238.02 524.603 239.54V246H522.803V239.8C522.803 238.707 522.53 237.873 521.983 237.3C521.436 236.713 520.69 236.42 519.743 236.42C518.783 236.42 518.016 236.72 517.443 237.32C516.883 237.92 516.603 238.793 516.603 239.94V246H514.783V235.04H516.603V236.6C516.963 236.04 517.45 235.607 518.063 235.3C518.69 234.993 519.376 234.84 520.123 234.84ZM541.508 232.96L535.948 246H534.108L539.748 233.14H532.028V231.58H541.508V232.96ZM543.306 244.54C544.999 243.18 546.326 242.067 547.286 241.2C548.246 240.32 549.053 239.407 549.706 238.46C550.373 237.5 550.706 236.56 550.706 235.64C550.706 234.773 550.493 234.093 550.066 233.6C549.653 233.093 548.979 232.84 548.046 232.84C547.139 232.84 546.433 233.127 545.926 233.7C545.433 234.26 545.166 235.013 545.126 235.96H543.366C543.419 234.467 543.873 233.313 544.726 232.5C545.579 231.687 546.679 231.28 548.026 231.28C549.399 231.28 550.486 231.66 551.286 232.42C552.099 233.18 552.506 234.227 552.506 235.56C552.506 236.667 552.173 237.747 551.506 238.8C550.853 239.84 550.106 240.76 549.266 241.56C548.426 242.347 547.353 243.267 546.046 244.32H552.926V245.84H543.306V244.54ZM554.59 242.78V241.4L561.61 231.68H563.79V241.2H565.79V242.78H563.79V246H561.99V242.78H554.59ZM562.07 233.58L556.69 241.2H562.07V233.58ZM578.96 246L576.36 241.92L573.86 246H571.96L575.5 240.56L571.96 235.04H574.02L576.62 239.1L579.1 235.04H581L577.48 240.46L581.02 246H578.96ZM587.802 235.18C587.896 233.953 588.369 232.993 589.222 232.3C590.076 231.607 591.182 231.26 592.542 231.26C593.449 231.26 594.229 231.427 594.882 231.76C595.549 232.08 596.049 232.52 596.382 233.08C596.729 233.64 596.902 234.273 596.902 234.98C596.902 235.807 596.662 236.52 596.182 237.12C595.716 237.72 595.102 238.107 594.342 238.28V238.38C595.209 238.593 595.896 239.013 596.402 239.64C596.909 240.267 597.162 241.087 597.162 242.1C597.162 242.86 596.989 243.547 596.642 244.16C596.296 244.76 595.776 245.233 595.082 245.58C594.389 245.927 593.556 246.1 592.582 246.1C591.169 246.1 590.009 245.733 589.102 245C588.196 244.253 587.689 243.2 587.582 241.84H589.342C589.436 242.64 589.762 243.293 590.322 243.8C590.882 244.307 591.629 244.56 592.562 244.56C593.496 244.56 594.202 244.32 594.682 243.84C595.176 243.347 595.422 242.713 595.422 241.94C595.422 240.94 595.089 240.22 594.422 239.78C593.756 239.34 592.749 239.12 591.402 239.12H590.942V237.6H591.422C592.649 237.587 593.576 237.387 594.202 237C594.829 236.6 595.142 235.987 595.142 235.16C595.142 234.453 594.909 233.887 594.442 233.46C593.989 233.033 593.336 232.82 592.482 232.82C591.656 232.82 590.989 233.033 590.482 233.46C589.976 233.887 589.676 234.46 589.582 235.18H587.802ZM599.18 242.78V241.4L606.2 231.68H608.38V241.2H610.38V242.78H608.38V246H606.58V242.78H599.18ZM606.66 233.58L601.28 241.2H606.66V233.58ZM612.198 238.62C612.198 236.327 612.571 234.54 613.318 233.26C614.064 231.967 615.371 231.32 617.238 231.32C619.091 231.32 620.391 231.967 621.138 233.26C621.884 234.54 622.258 236.327 622.258 238.62C622.258 240.953 621.884 242.767 621.138 244.06C620.391 245.353 619.091 246 617.238 246C615.371 246 614.064 245.353 613.318 244.06C612.571 242.767 612.198 240.953 612.198 238.62ZM620.458 238.62C620.458 237.46 620.378 236.48 620.218 235.68C620.071 234.867 619.758 234.213 619.278 233.72C618.811 233.227 618.131 232.98 617.238 232.98C616.331 232.98 615.638 233.227 615.158 233.72C614.691 234.213 614.378 234.867 614.218 235.68C614.071 236.48 613.998 237.46 613.998 238.62C613.998 239.82 614.071 240.827 614.218 241.64C614.378 242.453 614.691 243.107 615.158 243.6C615.638 244.093 616.331 244.34 617.238 244.34C618.131 244.34 618.811 244.093 619.278 243.6C619.758 243.107 620.071 242.453 620.218 241.64C620.378 240.827 620.458 239.82 620.458 238.62ZM632.208 237.06C632.568 236.433 633.102 235.913 633.808 235.5C634.528 235.073 635.362 234.86 636.308 234.86C637.282 234.86 638.162 235.093 638.948 235.56C639.748 236.027 640.375 236.687 640.828 237.54C641.282 238.38 641.508 239.36 641.508 240.48C641.508 241.587 641.282 242.573 640.828 243.44C640.375 244.307 639.748 244.98 638.948 245.46C638.162 245.94 637.282 246.18 636.308 246.18C635.375 246.18 634.548 245.973 633.828 245.56C633.122 245.133 632.582 244.607 632.208 243.98V251.2H630.388V235.04H632.208V237.06ZM639.648 240.48C639.648 239.653 639.482 238.933 639.148 238.32C638.815 237.707 638.362 237.24 637.788 236.92C637.228 236.6 636.608 236.44 635.928 236.44C635.262 236.44 634.642 236.607 634.068 236.94C633.508 237.26 633.055 237.733 632.708 238.36C632.375 238.973 632.208 239.687 632.208 240.5C632.208 241.327 632.375 242.053 632.708 242.68C633.055 243.293 633.508 243.767 634.068 244.1C634.642 244.42 635.262 244.58 635.928 244.58C636.608 244.58 637.228 244.42 637.788 244.1C638.362 243.767 638.815 243.293 639.148 242.68C639.482 242.053 639.648 241.32 639.648 240.48ZM649.624 246L647.024 241.92L644.524 246H642.624L646.164 240.56L642.624 235.04H644.684L647.284 239.1L649.764 235.04H651.664L648.144 240.46L651.684 246H649.624ZM658.126 240.48C658.126 239.36 658.353 238.38 658.806 237.54C659.26 236.687 659.88 236.027 660.666 235.56C661.466 235.093 662.36 234.86 663.346 234.86C664.2 234.86 664.993 235.06 665.726 235.46C666.46 235.847 667.02 236.36 667.406 237V231.2H669.246V246H667.406V243.94C667.046 244.593 666.513 245.133 665.806 245.56C665.1 245.973 664.273 246.18 663.326 246.18C662.353 246.18 661.466 245.94 660.666 245.46C659.88 244.98 659.26 244.307 658.806 243.44C658.353 242.573 658.126 241.587 658.126 240.48ZM667.406 240.5C667.406 239.673 667.24 238.953 666.906 238.34C666.573 237.727 666.12 237.26 665.546 236.94C664.986 236.607 664.366 236.44 663.686 236.44C663.006 236.44 662.386 236.6 661.826 236.92C661.266 237.24 660.82 237.707 660.486 238.32C660.153 238.933 659.986 239.653 659.986 240.48C659.986 241.32 660.153 242.053 660.486 242.68C660.82 243.293 661.266 243.767 661.826 244.1C662.386 244.42 663.006 244.58 663.686 244.58C664.366 244.58 664.986 244.42 665.546 244.1C666.12 243.767 666.573 243.293 666.906 242.68C667.24 242.053 667.406 241.327 667.406 240.5ZM671.642 240.48C671.642 239.36 671.869 238.38 672.322 237.54C672.775 236.687 673.395 236.027 674.182 235.56C674.982 235.093 675.869 234.86 676.842 234.86C677.802 234.86 678.635 235.067 679.342 235.48C680.049 235.893 680.575 236.413 680.922 237.04V235.04H682.762V246H680.922V243.96C680.562 244.6 680.022 245.133 679.302 245.56C678.595 245.973 677.769 246.18 676.822 246.18C675.849 246.18 674.969 245.94 674.182 245.46C673.395 244.98 672.775 244.307 672.322 243.44C671.869 242.573 671.642 241.587 671.642 240.48ZM680.922 240.5C680.922 239.673 680.755 238.953 680.422 238.34C680.089 237.727 679.635 237.26 679.062 236.94C678.502 236.607 677.882 236.44 677.202 236.44C676.522 236.44 675.902 236.6 675.342 236.92C674.782 237.24 674.335 237.707 674.002 238.32C673.669 238.933 673.502 239.653 673.502 240.48C673.502 241.32 673.669 242.053 674.002 242.68C674.335 243.293 674.782 243.767 675.342 244.1C675.902 244.42 676.522 244.58 677.202 244.58C677.882 244.58 678.502 244.42 679.062 244.1C679.635 243.767 680.089 243.293 680.422 242.68C680.755 242.053 680.922 241.327 680.922 240.5ZM691.178 234.84C692.511 234.84 693.591 235.247 694.418 236.06C695.244 236.86 695.658 238.02 695.658 239.54V246H693.858V239.8C693.858 238.707 693.584 237.873 693.038 237.3C692.491 236.713 691.744 236.42 690.798 236.42C689.838 236.42 689.071 236.72 688.498 237.32C687.938 237.92 687.658 238.793 687.658 239.94V246H685.838V235.04H687.658V236.6C688.018 236.04 688.504 235.607 689.118 235.3C689.744 234.993 690.431 234.84 691.178 234.84ZM706.183 236.54V243C706.183 243.533 706.296 243.913 706.523 244.14C706.749 244.353 707.143 244.46 707.703 244.46H709.043V246H707.403C706.389 246 705.629 245.767 705.123 245.3C704.616 244.833 704.363 244.067 704.363 243V236.54H702.943V235.04H704.363V232.28H706.183V235.04H709.043V236.54H706.183ZM712.188 233.26C711.841 233.26 711.548 233.14 711.308 232.9C711.068 232.66 710.948 232.367 710.948 232.02C710.948 231.673 711.068 231.38 711.308 231.14C711.548 230.9 711.841 230.78 712.188 230.78C712.521 230.78 712.801 230.9 713.028 231.14C713.268 231.38 713.388 231.673 713.388 232.02C713.388 232.367 713.268 232.66 713.028 232.9C712.801 233.14 712.521 233.26 712.188 233.26ZM713.068 235.04V246H711.248V235.04H713.068ZM715.49 240.48C715.49 239.36 715.716 238.38 716.17 237.54C716.623 236.687 717.243 236.027 718.03 235.56C718.83 235.093 719.723 234.86 720.71 234.86C721.563 234.86 722.356 235.06 723.09 235.46C723.823 235.847 724.383 236.36 724.77 237V231.2H726.61V246H724.77V243.94C724.41 244.593 723.876 245.133 723.17 245.56C722.463 245.973 721.636 246.18 720.69 246.18C719.716 246.18 718.83 245.94 718.03 245.46C717.243 244.98 716.623 244.307 716.17 243.44C715.716 242.573 715.49 241.587 715.49 240.48ZM724.77 240.5C724.77 239.673 724.603 238.953 724.27 238.34C723.936 237.727 723.483 237.26 722.91 236.94C722.35 236.607 721.73 236.44 721.05 236.44C720.37 236.44 719.75 236.6 719.19 236.92C718.63 237.24 718.183 237.707 717.85 238.32C717.516 238.933 717.35 239.653 717.35 240.48C717.35 241.32 717.516 242.053 717.85 242.68C718.183 243.293 718.63 243.767 719.19 244.1C719.75 244.42 720.37 244.58 721.05 244.58C721.73 244.58 722.35 244.42 722.91 244.1C723.483 243.767 723.936 243.293 724.27 242.68C724.603 242.053 724.77 241.327 724.77 240.5ZM729.005 240.48C729.005 239.36 729.232 238.38 729.685 237.54C730.139 236.687 730.759 236.027 731.545 235.56C732.345 235.093 733.232 234.86 734.205 234.86C735.165 234.86 735.999 235.067 736.705 235.48C737.412 235.893 737.939 236.413 738.285 237.04V235.04H740.125V246H738.285V243.96C737.925 244.6 737.385 245.133 736.665 245.56C735.959 245.973 735.132 246.18 734.185 246.18C733.212 246.18 732.332 245.94 731.545 245.46C730.759 244.98 730.139 244.307 729.685 243.44C729.232 242.573 729.005 241.587 729.005 240.48ZM738.285 240.5C738.285 239.673 738.119 238.953 737.785 238.34C737.452 237.727 736.999 237.26 736.425 236.94C735.865 236.607 735.245 236.44 734.565 236.44C733.885 236.44 733.265 236.6 732.705 236.92C732.145 237.24 731.699 237.707 731.365 238.32C731.032 238.933 730.865 239.653 730.865 240.48C730.865 241.32 731.032 242.053 731.365 242.68C731.699 243.293 732.145 243.767 732.705 244.1C733.265 244.42 733.885 244.58 734.565 244.58C735.245 244.58 735.865 244.42 736.425 244.1C736.999 243.767 737.452 243.293 737.785 242.68C738.119 242.053 738.285 241.327 738.285 240.5ZM749.321 246L745.021 241.16V246H743.201V231.2H745.021V239.9L749.241 235.04H751.781L746.621 240.5L751.801 246H749.321ZM760.646 231.2V246H758.826V231.2H760.646ZM773.748 240.1C773.748 240.447 773.728 240.813 773.688 241.2H764.928C764.994 242.28 765.361 243.127 766.028 243.74C766.708 244.34 767.528 244.64 768.488 244.64C769.274 244.64 769.928 244.46 770.448 244.1C770.981 243.727 771.354 243.233 771.568 242.62H773.528C773.234 243.673 772.648 244.533 771.768 245.2C770.888 245.853 769.794 246.18 768.488 246.18C767.448 246.18 766.514 245.947 765.688 245.48C764.874 245.013 764.234 244.353 763.768 243.5C763.301 242.633 763.068 241.633 763.068 240.5C763.068 239.367 763.294 238.373 763.748 237.52C764.201 236.667 764.834 236.013 765.648 235.56C766.474 235.093 767.421 234.86 768.488 234.86C769.528 234.86 770.448 235.087 771.248 235.54C772.048 235.993 772.661 236.62 773.088 237.42C773.528 238.207 773.748 239.1 773.748 240.1ZM771.868 239.72C771.868 239.027 771.714 238.433 771.408 237.94C771.101 237.433 770.681 237.053 770.148 236.8C769.628 236.533 769.048 236.4 768.408 236.4C767.488 236.4 766.701 236.693 766.048 237.28C765.408 237.867 765.041 238.68 764.948 239.72H771.868ZM777.97 237.08C778.344 236.427 778.89 235.893 779.61 235.48C780.33 235.067 781.15 234.86 782.07 234.86C783.057 234.86 783.944 235.093 784.73 235.56C785.517 236.027 786.137 236.687 786.59 237.54C787.044 238.38 787.27 239.36 787.27 240.48C787.27 241.587 787.044 242.573 786.59 243.44C786.137 244.307 785.51 244.98 784.71 245.46C783.924 245.94 783.044 246.18 782.07 246.18C781.124 246.18 780.29 245.973 779.57 245.56C778.864 245.147 778.33 244.62 777.97 243.98V246H776.15V231.2H777.97V237.08ZM785.41 240.48C785.41 239.653 785.244 238.933 784.91 238.32C784.577 237.707 784.124 237.24 783.55 236.92C782.99 236.6 782.37 236.44 781.69 236.44C781.024 236.44 780.404 236.607 779.83 236.94C779.27 237.26 778.817 237.733 778.47 238.36C778.137 238.973 777.97 239.687 777.97 240.5C777.97 241.327 778.137 242.053 778.47 242.68C778.817 243.293 779.27 243.767 779.83 244.1C780.404 244.42 781.024 244.58 781.69 244.58C782.37 244.58 782.99 244.42 783.55 244.1C784.124 243.767 784.577 243.293 784.91 242.68C785.244 242.053 785.41 241.32 785.41 240.48ZM790.606 233.26C790.259 233.26 789.966 233.14 789.726 232.9C789.486 232.66 789.366 232.367 789.366 232.02C789.366 231.673 789.486 231.38 789.726 231.14C789.966 230.9 790.259 230.78 790.606 230.78C790.939 230.78 791.219 230.9 791.446 231.14C791.686 231.38 791.806 231.673 791.806 232.02C791.806 232.367 791.686 232.66 791.446 232.9C791.219 233.14 790.939 233.26 790.606 233.26ZM791.486 235.04V246H789.666V235.04H791.486ZM800.028 234.84C800.854 234.84 801.601 235.02 802.268 235.38C802.934 235.727 803.454 236.253 803.828 236.96C804.214 237.667 804.408 238.527 804.408 239.54V246H802.608V239.8C802.608 238.707 802.334 237.873 801.788 237.3C801.241 236.713 800.494 236.42 799.548 236.42C798.588 236.42 797.821 236.72 797.248 237.32C796.688 237.92 796.408 238.793 796.408 239.94V246H794.588V231.2H796.408V236.6C796.768 236.04 797.261 235.607 797.888 235.3C798.528 234.993 799.241 234.84 800.028 234.84ZM812.033 240.48C812.033 239.36 812.259 238.38 812.713 237.54C813.166 236.687 813.786 236.027 814.573 235.56C815.373 235.093 816.266 234.86 817.253 234.86C818.106 234.86 818.899 235.06 819.633 235.46C820.366 235.847 820.926 236.36 821.313 237V231.2H823.153V246H821.313V243.94C820.953 244.593 820.419 245.133 819.713 245.56C819.006 245.973 818.179 246.18 817.233 246.18C816.259 246.18 815.373 245.94 814.573 245.46C813.786 244.98 813.166 244.307 812.713 243.44C812.259 242.573 812.033 241.587 812.033 240.48ZM821.313 240.5C821.313 239.673 821.146 238.953 820.813 238.34C820.479 237.727 820.026 237.26 819.453 236.94C818.893 236.607 818.273 236.44 817.593 236.44C816.913 236.44 816.293 236.6 815.733 236.92C815.173 237.24 814.726 237.707 814.393 238.32C814.059 238.933 813.893 239.653 813.893 240.48C813.893 241.32 814.059 242.053 814.393 242.68C814.726 243.293 815.173 243.767 815.733 244.1C816.293 244.42 816.913 244.58 817.593 244.58C818.273 244.58 818.893 244.42 819.453 244.1C820.026 243.767 820.479 243.293 820.813 242.68C821.146 242.053 821.313 241.327 821.313 240.5ZM825.548 240.48C825.548 239.36 825.775 238.38 826.228 237.54C826.682 236.687 827.302 236.027 828.088 235.56C828.888 235.093 829.775 234.86 830.748 234.86C831.708 234.86 832.542 235.067 833.248 235.48C833.955 235.893 834.482 236.413 834.828 237.04V235.04H836.668V246H834.828V243.96C834.468 244.6 833.928 245.133 833.208 245.56C832.502 245.973 831.675 246.18 830.728 246.18C829.755 246.18 828.875 245.94 828.088 245.46C827.302 244.98 826.682 244.307 826.228 243.44C825.775 242.573 825.548 241.587 825.548 240.48ZM834.828 240.5C834.828 239.673 834.662 238.953 834.328 238.34C833.995 237.727 833.542 237.26 832.968 236.94C832.408 236.607 831.788 236.44 831.108 236.44C830.428 236.44 829.808 236.6 829.248 236.92C828.688 237.24 828.242 237.707 827.908 238.32C827.575 238.933 827.408 239.653 827.408 240.48C827.408 241.32 827.575 242.053 827.908 242.68C828.242 243.293 828.688 243.767 829.248 244.1C829.808 244.42 830.428 244.58 831.108 244.58C831.788 244.58 832.408 244.42 832.968 244.1C833.542 243.767 833.995 243.293 834.328 242.68C834.662 242.053 834.828 241.327 834.828 240.5ZM841.564 236.82C841.884 236.193 842.337 235.707 842.924 235.36C843.524 235.013 844.251 234.84 845.104 234.84V236.72H844.624C842.584 236.72 841.564 237.827 841.564 240.04V246H839.744V235.04H841.564V236.82ZM848.145 233.26C847.798 233.26 847.505 233.14 847.265 232.9C847.025 232.66 846.905 232.367 846.905 232.02C846.905 231.673 847.025 231.38 847.265 231.14C847.505 230.9 847.798 230.78 848.145 230.78C848.478 230.78 848.758 230.9 848.985 231.14C849.225 231.38 849.345 231.673 849.345 232.02C849.345 232.367 849.225 232.66 848.985 232.9C848.758 233.14 848.478 233.26 848.145 233.26ZM849.025 235.04V246H847.205V235.04H849.025ZM857.119 235.18C857.212 233.953 857.685 232.993 858.539 232.3C859.392 231.607 860.499 231.26 861.859 231.26C862.765 231.26 863.545 231.427 864.199 231.76C864.865 232.08 865.365 232.52 865.699 233.08C866.045 233.64 866.219 234.273 866.219 234.98C866.219 235.807 865.979 236.52 865.499 237.12C865.032 237.72 864.419 238.107 863.659 238.28V238.38C864.525 238.593 865.212 239.013 865.719 239.64C866.225 240.267 866.479 241.087 866.479 242.1C866.479 242.86 866.305 243.547 865.959 244.16C865.612 244.76 865.092 245.233 864.399 245.58C863.705 245.927 862.872 246.1 861.899 246.1C860.485 246.1 859.325 245.733 858.419 245C857.512 244.253 857.005 243.2 856.899 241.84H858.659C858.752 242.64 859.079 243.293 859.639 243.8C860.199 244.307 860.945 244.56 861.879 244.56C862.812 244.56 863.519 244.32 863.999 243.84C864.492 243.347 864.739 242.713 864.739 241.94C864.739 240.94 864.405 240.22 863.739 239.78C863.072 239.34 862.065 239.12 860.719 239.12H860.259V237.6H860.739C861.965 237.587 862.892 237.387 863.519 237C864.145 236.6 864.459 235.987 864.459 235.16C864.459 234.453 864.225 233.887 863.759 233.46C863.305 233.033 862.652 232.82 861.799 232.82C860.972 232.82 860.305 233.033 859.799 233.46C859.292 233.887 858.992 234.46 858.899 235.18H857.119ZM888.708 232.16V246H886.888V235.68L882.288 246H881.008L876.388 235.66V246H874.568V232.16H876.528L881.648 243.6L886.768 232.16H888.708ZM893.615 237.08C893.988 236.427 894.535 235.893 895.255 235.48C895.975 235.067 896.795 234.86 897.715 234.86C898.701 234.86 899.588 235.093 900.375 235.56C901.161 236.027 901.781 236.687 902.235 237.54C902.688 238.38 902.915 239.36 902.915 240.48C902.915 241.587 902.688 242.573 902.235 243.44C901.781 244.307 901.155 244.98 900.355 245.46C899.568 245.94 898.688 246.18 897.715 246.18C896.768 246.18 895.935 245.973 895.215 245.56C894.508 245.147 893.975 244.62 893.615 243.98V246H891.795V231.2H893.615V237.08ZM901.055 240.48C901.055 239.653 900.888 238.933 900.555 238.32C900.221 237.707 899.768 237.24 899.195 236.92C898.635 236.6 898.015 236.44 897.335 236.44C896.668 236.44 896.048 236.607 895.475 236.94C894.915 237.26 894.461 237.733 894.115 238.36C893.781 238.973 893.615 239.687 893.615 240.5C893.615 241.327 893.781 242.053 894.115 242.68C894.461 243.293 894.915 243.767 895.475 244.1C896.048 244.42 896.668 244.58 897.335 244.58C898.015 244.58 898.635 244.42 899.195 244.1C899.768 243.767 900.221 243.293 900.555 242.68C900.888 242.053 901.055 241.32 901.055 240.48Z" fill="#404040"/>
<g filter="url(#filter0_d_542_3121)">
<path fill-rule="evenodd" clip-rule="evenodd" d="M621.265 139.117C620.054 139.117 619.071 138.137 619.071 136.929V115.559C619.071 114.351 620.054 113.371 621.265 113.371C622.477 113.371 623.46 114.351 623.46 115.559V136.929C623.46 138.137 622.477 139.117 621.265 139.117" fill="#CE5A67"/>
<path fill-rule="evenodd" clip-rule="evenodd" d="M631.994 128.43H610.537C609.323 128.43 608.342 127.45 608.342 126.242C608.342 125.035 609.323 124.055 610.537 124.055H631.994C633.205 124.055 634.188 125.035 634.188 126.242C634.188 127.45 633.205 128.43 631.994 128.43" fill="#CE5A67"/>
<path fill-rule="evenodd" clip-rule="evenodd" d="M607.554 99.2915C599.443 99.2915 594.199 104.824 594.199 113.394V139.148C594.199 147.717 599.443 153.25 607.554 153.25H634.977C643.091 153.25 648.331 147.717 648.331 139.148V113.394C648.331 104.824 643.091 99.2915 634.977 99.2915H607.554ZM634.977 157.625H607.554C596.941 157.625 589.81 150.199 589.81 139.148V113.394C589.81 102.342 596.941 94.9165 607.554 94.9165H634.977C645.59 94.9165 652.72 102.342 652.72 113.394V139.148C652.72 150.199 645.59 157.625 634.977 157.625V157.625Z" fill="#CE5A67"/>
</g>
<defs>
<filter id="filter0_d_542_3121" x="582.884" y="90" width="78.2256" height="78" filterUnits="userSpaceOnUse" color-interpolation-filters="sRGB">
<feFlood flood-opacity="0" result="BackgroundImageFix"/>
<feColorMatrix in="SourceAlpha" type="matrix" values="0 0 0 0 0 0 0 0 0 0 0 0 0 0 0 0 0 0 127 0" result="hardAlpha"/>
<feOffset dy="2"/>
<feGaussianBlur stdDeviation="2"/>
<feComposite in2="hardAlpha" operator="out"/>
<feColorMatrix type="matrix" values="0 0 0 0 0.807843 0 0 0 0 0.352941 0 0 0 0 0.403922 0 0 0 1 0"/>
<feBlend mode="normal" in2="BackgroundImageFix" result="effect1_dropShadow_542_3121"/>
<feBlend mode="normal" in="SourceGraphic" in2="effect1_dropShadow_542_3121" result="shape"/>
</filter>
</defs>
</svg>
