<svg width="36" height="35" viewBox="0 0 36 35" fill="none" xmlns="http://www.w3.org/2000/svg">
<path opacity="0.4" d="M33 17.4998C33 25.5557 26.2845 32.0832 18 32.0832C9.7155 32.0832 3 25.5557 3 17.4998C3 9.44692 9.7155 2.9165 18 2.9165C26.2845 2.9165 33 9.44692 33 17.4998Z" fill="#CE5A67"/>
<path fill-rule="evenodd" clip-rule="evenodd" d="M19.3049 18.4196C19.3049 19.1225 18.7154 19.6957 17.9924 19.6957C17.2694 19.6957 16.6799 19.1225 16.6799 18.4196V11.9738C16.6799 11.2709 17.2694 10.6978 17.9924 10.6978C18.7154 10.6978 19.3049 11.2709 19.3049 11.9738V18.4196ZM16.6874 23.0466C16.6874 22.3437 17.2739 21.7706 17.9924 21.7706C18.7319 21.7706 19.3199 22.3437 19.3199 23.0466C19.3199 23.7495 18.7319 24.3227 18.0074 24.3227C17.2799 24.3227 16.6874 23.7495 16.6874 23.0466Z" fill="#CE5A67"/>
</svg>
