<svg width="35" height="35" viewBox="0 0 35 35" fill="none" xmlns="http://www.w3.org/2000/svg">
<path fill-rule="evenodd" clip-rule="evenodd" d="M5.104 15.0466C5.104 8.33843 10.7097 2.9165 17.4903 2.9165C24.29 2.9165 29.8957 8.33843 29.8957 15.0466C29.8957 18.4269 28.6663 21.5651 26.6429 24.225C24.4106 27.1591 21.6592 29.7155 18.5623 31.7221C17.8535 32.1859 17.2138 32.2209 16.4359 31.7221C13.3213 29.7155 10.57 27.1591 8.35682 24.225C6.3319 21.5651 5.104 18.4269 5.104 15.0466ZM13.4081 15.4243C13.4081 17.6715 15.2418 19.4389 17.4903 19.4389C19.7402 19.4389 21.5916 17.6715 21.5916 15.4243C21.5916 13.1945 19.7402 11.3411 17.4903 11.3411C15.2418 11.3411 13.4081 13.1945 13.4081 15.4243Z" fill="#CE5A67"/>
</svg>
