<svg width="57" height="57" viewBox="0 0 57 57" fill="none" xmlns="http://www.w3.org/2000/svg">
<rect x="1" y="1" width="55" height="55" rx="27.5" stroke="#CE5A67" stroke-width="2"/>
<path fill-rule="evenodd" clip-rule="evenodd" d="M29.2324 16.9065L31.5543 19.2341C31.7612 19.4423 32.0346 19.5472 32.3066 19.5472C32.5772 19.5472 32.8492 19.4423 33.056 19.2369C33.4725 18.8218 33.4725 18.1489 33.0588 17.7338L28.9222 13.5858C28.5241 13.1849 27.8158 13.1849 27.4177 13.5858L23.281 17.7338C22.8673 18.1489 22.8673 18.8218 23.2838 19.2369C23.7003 19.6506 24.3718 19.6506 24.7855 19.2341L27.1074 16.9065V21.1395C27.8299 21.1253 28.5383 21.1253 29.2324 21.1395V16.9065Z" fill="#CE5A67"/>
<path fill-rule="evenodd" clip-rule="evenodd" d="M34.2333 21.3234C32.6467 21.2101 30.9749 21.1537 29.2324 21.1395L29.2325 31.3959C29.2325 31.9767 28.7508 32.4584 28.17 32.4584C27.5892 32.4584 27.1075 31.9767 27.1075 31.3959L27.1074 21.1395C25.3933 21.1537 23.6083 21.2243 21.7667 21.3234H21.7383C16.0292 21.8476 14.1875 24.4401 14.1875 31.9484C14.1875 42.7151 18.225 42.7151 28 42.7151C37.775 42.7151 41.8125 42.7151 41.8125 31.9484C41.8125 24.4401 39.9708 21.8476 34.2333 21.3234Z" fill="#CE5A67"/>
</svg>
