<svg width="73" height="72" viewBox="0 0 73 72" fill="none" xmlns="http://www.w3.org/2000/svg">
<g filter="url(#filter0_d_584_3441)">
<path fill-rule="evenodd" clip-rule="evenodd" d="M36.2653 47.1165C35.054 47.1165 34.0708 46.1365 34.0708 44.929V23.5586C34.0708 22.3511 35.054 21.3711 36.2653 21.3711C37.4767 21.3711 38.4599 22.3511 38.4599 23.5586V44.929C38.4599 46.1365 37.4767 47.1165 36.2653 47.1165" fill="#CE5A67"/>
<path fill-rule="evenodd" clip-rule="evenodd" d="M46.9936 36.4297H25.5368C24.3225 36.4297 23.3423 35.4497 23.3423 34.2422C23.3423 33.0347 24.3225 32.0547 25.5368 32.0547H46.9936C48.205 32.0547 49.1882 33.0347 49.1882 34.2422C49.1882 35.4497 48.205 36.4297 46.9936 36.4297" fill="#CE5A67"/>
<path fill-rule="evenodd" clip-rule="evenodd" d="M22.5537 7.2915C14.4427 7.2915 9.19915 12.8244 9.19915 21.3936V47.1478C9.19915 55.7169 14.4427 61.2498 22.5537 61.2498H49.9767C58.0907 61.2498 63.3313 55.7169 63.3313 47.1478V21.3936C63.3313 12.8244 58.0907 7.2915 49.9767 7.2915H22.5537ZM49.9767 65.6248H22.5537C11.9409 65.6248 4.81006 58.199 4.81006 47.1478V21.3936C4.81006 10.3423 11.9409 2.9165 22.5537 2.9165H49.9767C60.5896 2.9165 67.7204 10.3423 67.7204 21.3936V47.1478C67.7204 58.199 60.5896 65.6248 49.9767 65.6248V65.6248Z" fill="#CE5A67"/>
</g>
<defs>
<filter id="filter0_d_584_3441" x="-2.11621" y="-2" width="78.2256" height="78" filterUnits="userSpaceOnUse" color-interpolation-filters="sRGB">
<feFlood flood-opacity="0" result="BackgroundImageFix"/>
<feColorMatrix in="SourceAlpha" type="matrix" values="0 0 0 0 0 0 0 0 0 0 0 0 0 0 0 0 0 0 127 0" result="hardAlpha"/>
<feOffset dy="2"/>
<feGaussianBlur stdDeviation="2"/>
<feComposite in2="hardAlpha" operator="out"/>
<feColorMatrix type="matrix" values="0 0 0 0 0.807843 0 0 0 0 0.352941 0 0 0 0 0.403922 0 0 0 1 0"/>
<feBlend mode="normal" in2="BackgroundImageFix" result="effect1_dropShadow_584_3441"/>
<feBlend mode="normal" in="SourceGraphic" in2="effect1_dropShadow_584_3441" result="shape"/>
</filter>
</defs>
</svg>
