<svg width="35" height="35" viewBox="0 0 35 35" fill="none" xmlns="http://www.w3.org/2000/svg">
<path fill-rule="evenodd" clip-rule="evenodd" d="M17.4998 32.0837C9.44984 32.0837 2.9165 25.5649 2.9165 17.5003C2.9165 9.45033 9.44984 2.91699 17.4998 2.91699C25.5644 2.91699 32.0832 9.45033 32.0832 17.5003C32.0832 25.5649 25.5644 32.0837 17.4998 32.0837ZM22.1519 22.9107C22.3269 23.0128 22.5165 23.0712 22.7207 23.0712C23.0853 23.0712 23.4498 22.8816 23.654 22.5316C23.9603 22.0212 23.7998 21.3503 23.2748 21.0295L18.0832 17.9378V11.2003C18.0832 10.5878 17.5873 10.1066 16.9894 10.1066C16.3915 10.1066 15.8957 10.5878 15.8957 11.2003V18.5649C15.8957 18.9441 16.0998 19.2941 16.4353 19.4982L22.1519 22.9107Z" fill="#CE5A67"/>
</svg>
