<?xml version="1.0" encoding="UTF-8"?>
<!DOCTYPE svg PUBLIC "-//W3C//DTD SVG 1.1//EN" "http://www.w3.org/Graphics/SVG/1.1/DTD/svg11.dtd">
<svg xmlns="http://www.w3.org/2000/svg" version="1.1" width="50px" height="50px" style="shape-rendering:geometricPrecision; text-rendering:geometricPrecision; image-rendering:optimizeQuality; fill-rule:evenodd; clip-rule:evenodd" xmlns:xlink="http://www.w3.org/1999/xlink">
<g><path style="opacity:0.955" fill="#3f3f3f" d="M 17.5,2.5 C 26.2889,1.18964 34.2889,3.02298 41.5,8C 48.4753,16.1967 49.3086,25.0301 44,34.5C 36.9001,41.3111 28.4001,44.1445 18.5,43C 15.3855,45.8543 11.7189,47.021 7.5,46.5C 7.86639,44.095 8.53305,41.7617 9.5,39.5C 2.44831,33.38 -0.0516942,25.7134 2,16.5C 5.04883,9.40699 10.2155,4.74033 17.5,2.5 Z M 13.5,15.5 C 20.8635,15.1694 28.1968,15.5027 35.5,16.5C 31.8333,16.8333 28.1667,17.1667 24.5,17.5C 20.4348,17.4888 16.7681,16.8222 13.5,15.5 Z M 9.5,21.5 C 15.2055,21.1712 20.8722,21.5046 26.5,22.5C 23.6667,22.8333 20.8333,23.1667 18,23.5C 14.7485,23.4809 11.9151,22.8142 9.5,21.5 Z M 32.5,21.5 C 34.924,21.1924 37.2573,21.5258 39.5,22.5C 38.3333,22.8333 37.1667,23.1667 36,23.5C 34.3189,23.3917 33.1522,22.7251 32.5,21.5 Z M 13.5,27.5 C 20.8635,27.1694 28.1968,27.5027 35.5,28.5C 31.8333,28.8333 28.1667,29.1667 24.5,29.5C 20.4348,29.4888 16.7681,28.8222 13.5,27.5 Z"/></g>
</svg>
