<svg width="24" height="22" viewBox="0 0 24 22" fill="none" xmlns="http://www.w3.org/2000/svg">
<path fill-rule="evenodd" clip-rule="evenodd" d="M20.2871 5.46207C20.6761 5.46207 21 5.74279 21 6.1V6.43026C21 6.77877 20.6761 7.06818 20.2871 7.06818H3.71385C3.32386 7.06818 3 6.77877 3 6.43026V6.1C3 5.74279 3.32386 5.46207 3.71385 5.46207H6.62957C7.22185 5.46207 7.7373 5.09618 7.87054 4.57993L8.02323 3.9872C8.26054 3.17979 9.0415 2.64355 9.93527 2.64355H14.0647C14.9488 2.64355 15.7385 3.17979 15.967 3.94461L16.1304 4.57906C16.2627 5.09618 16.7781 5.46207 17.3714 5.46207H20.2871ZM18.8058 17.535C19.1102 15.0694 19.6432 9.21158 19.6432 9.15248C19.6626 8.97344 19.5955 8.80397 19.4623 8.66752C19.3193 8.53976 19.1384 8.46415 18.9391 8.46415H5.06852C4.86818 8.46415 4.67756 8.53976 4.54529 8.66752C4.41108 8.80397 4.34494 8.97344 4.35467 9.15248C4.35646 9.16334 4.37558 9.36967 4.40755 9.71463C4.54958 11.2471 4.94517 15.5153 5.20079 17.535C5.38168 19.0229 6.50498 19.9581 8.13206 19.992C9.38763 20.0172 10.6811 20.0259 12.0038 20.0259C13.2496 20.0259 14.5149 20.0172 15.8094 19.992C17.4929 19.9668 18.6152 19.0481 18.8058 17.535Z" fill="#CE5A67"/>
</svg>
