<svg width="24" height="23" viewBox="0 0 24 23" fill="none" xmlns="http://www.w3.org/2000/svg">
<path fill-rule="evenodd" clip-rule="evenodd" d="M9.3764 18.9812L18.1628 8.7261C18.6403 8.17308 18.8101 7.53371 18.6509 6.8827C18.513 6.29087 18.1097 5.72815 17.5049 5.30126L16.0299 4.24373C14.7459 3.32203 13.1541 3.41905 12.2415 4.47658L11.2546 5.6321C11.1273 5.77666 11.1591 5.99011 11.3183 6.10653C11.3183 6.10653 13.812 7.91113 13.8651 7.94993C14.0349 8.09547 14.1622 8.28951 14.1941 8.52236C14.2471 8.97836 13.8969 9.40525 13.377 9.46346C13.1329 9.49257 12.8994 9.42465 12.7297 9.29853L10.1086 7.41632C9.98126 7.32997 9.79025 7.3484 9.68413 7.46483L3.45514 14.7414C3.0519 15.1974 2.91395 15.7892 3.0519 16.3617L3.84777 19.476C3.89021 19.641 4.04939 19.7574 4.24039 19.7574L7.74222 19.7186C8.37891 19.7089 8.97316 19.4469 9.3764 18.9812ZM14.2797 18.0113H19.9898C20.5469 18.0113 21 18.4256 21 18.935C21 19.4453 20.5469 19.8586 19.9898 19.8586H14.2797C13.7226 19.8586 13.2695 19.4453 13.2695 18.935C13.2695 18.4256 13.7226 18.0113 14.2797 18.0113Z" fill="#424242"/>
</svg>
