<?xml version="1.0" encoding="UTF-8"?>
<!DOCTYPE svg PUBLIC "-//W3C//DTD SVG 1.1//EN" "http://www.w3.org/Graphics/SVG/1.1/DTD/svg11.dtd">
<svg xmlns="http://www.w3.org/2000/svg" version="1.1" width="30px" height="30px" style="shape-rendering:geometricPrecision; text-rendering:geometricPrecision; image-rendering:optimizeQuality; fill-rule:evenodd; clip-rule:evenodd" xmlns:xlink="http://www.w3.org/1999/xlink">
<g><path style="opacity:0.622" fill="#000000" d="M 7.5,2.5 C 20.0237,1.02156 24.6904,6.35489 21.5,18.5C 22.8149,20.3159 24.3149,21.9825 26,23.5C 26.4828,24.448 26.6495,25.448 26.5,26.5C 25.448,26.6495 24.448,26.4828 23.5,26C 21.9825,24.3149 20.3159,22.8149 18.5,21.5C 6.20066,24.7 1.03399,20.0333 3,7.5C 4.36569,5.63834 5.86569,3.97167 7.5,2.5 Z M 9.5,5.5 C 18.8504,5.36536 21.517,9.53202 17.5,18C 8.95624,21.3224 5.12291,18.4891 6,9.5C 6.68972,7.64977 7.85639,6.31643 9.5,5.5 Z"/></g>
</svg>
